<svg width="800.000000" height="800.000000" viewBox="0 0 800 800" fill="#00000000" xmlns="http://www.w3.org/2000/svg" xmlns:xlink="http://www.w3.org/1999/xlink">
	<desc>
			Created with Pixso.
	</desc>
	<rect width="800.000000" height="800.000000" fill="#00000000"/>
	<g clip-path="url(#clip2_1)">
		<g filter="url(#filter_5_1_dd)">
			<rect id="阴影" x="15.000000" y="15.000000" rx="80.000000" width="770.000000" height="770.000000" fill="#000000" fill-opacity="0.25"/>
		</g>
		<rect id="背景" x="25.000000" y="25.000000" rx="80.000000" width="750.000000" height="750.000000" fill="url(#paint_linear_2_2_0)"/>
		<path id="C" d="M155.039 185.461Q117.93 250.695 117.93 332.922Q117.93 415.344 155.039 480.188Q192.344 545.031 256.797 581.555Q321.25 617.883 401.133 617.883Q495.664 617.883 565.586 570.227Q635.508 522.57 663.633 437.023L534.727 437.023Q515.586 477.062 480.82 497.57Q446.055 517.883 400.352 517.883Q351.523 517.883 313.438 495.031Q275.547 472.18 254.258 430.188Q233.164 388.195 233.164 332.922Q233.164 277.062 254.258 235.461Q275.547 193.859 313.438 171.008Q351.523 148.156 400.352 148.156Q446.055 148.156 480.82 168.273Q515.586 188.195 534.727 228.234L663.633 228.234Q635.508 143.469 565.195 95.4219Q494.883 47.375 401.133 47.375Q321.25 47.375 256.797 83.8984Q192.344 120.227 155.039 185.461Z" fill="#FFFFFFFF"/>
		<path id="Super背景" d="M95 575L705 575C743.66 575 775 606.34 775 645L775 695C775 739.183 739.183 775 695 775L105 775C60.8172 775 25 739.183 25 695L25 645C25 606.34 56.3401 575 95 575Z" fill-rule="evenodd" fill="#FFC000"/>
		<path id="Super" d="M132.102 621.809C132.102 635.578 139.719 643 153.684 649.396L164.279 654.182C194.113 667.609 205.1 679.621 205.1 702.18C205.1 728.791 184.885 747.004 147.287 747.004C130.881 747.004 112.717 742.805 100.705 734.992L102.121 700.617L113.693 700.617L124.289 735.383C130.295 737.58 136.301 738.41 143.918 738.41C163.693 738.41 174.68 728.986 174.68 713.41C174.68 699.787 168.918 692.609 152.902 685.578L143.283 681.379C116.477 669.416 102.316 655.988 102.316 632.014C102.316 605.012 124.094 589.582 156.711 589.582C172.287 589.582 186.301 593.781 197.287 601.008L195.48 633.576L183.908 633.576L173.703 600.422C169.699 598.615 165.695 597.98 160.715 597.98C143.283 597.98 132.102 606.818 132.102 621.809ZM395.293 630.598L398.077 632.6L399.493 645.393C408.916 634.992 420.684 630.402 433.916 630.402C458.282 630.402 477.715 650.812 477.715 687.824C477.715 724.201 455.498 746.418 429.082 746.418C418.096 746.418 408.086 742.414 399.688 732.6L399.688 744.416C399.688 756.379 399.883 771.613 400.079 787.189L415.508 788.996L415.508 794.807L354.082 794.807L354.082 788.996L367.51 787.58C367.705 771.809 367.901 756.623 367.901 744.416L367.901 678.986C367.901 665.998 367.705 659.211 367.315 649.592L352.52 647.98L352.52 643.195L395.293 630.598ZM562.277 732.209C576.29 732.209 584.884 726.203 591.476 717.023L595.284 719.416C587.081 736.604 571.115 746.418 550.704 746.418C517.697 746.418 493.282 725.422 493.282 688.02C493.282 650.422 521.896 630.402 550.509 630.402C580.49 630.402 596.7 650.617 596.7 676.008C596.7 680.988 596.505 684.406 595.48 688.215L527.511 688.215C528.488 719.416 543.478 732.209 562.277 732.209ZM651.693 630.598L654.477 632.6L656.088 661.213C662.094 640.803 675.717 630.402 687.68 630.402C697.104 630.402 705.111 634.211 707.113 646.223C706.283 655.012 702.279 662.385 692.318 662.385C684.701 662.385 679.916 657.6 674.496 650.422L672.69 647.98C664.682 655.402 659.897 663.996 656.088 678.791L656.088 695.393C656.088 706.379 656.283 723.176 656.479 734.992L674.887 736.799L674.887 743L609.897 743L609.897 736.799L623.52 735.383C623.715 723.811 623.91 706.623 623.91 695.393L623.91 678.791C623.91 665.803 623.715 659.211 623.324 649.592L608.285 647.98L608.285 643.195L651.693 630.598ZM330.719 666.193L330.719 736.213L343.317 737.189L343.317 743.195L299.323 745.783L298.298 725.812C289.118 737.385 275.885 746.418 261.286 746.418C241.315 746.418 228.718 735.578 229.108 705.207L229.889 645.783L215.876 643L215.876 637.58L260.309 631.623L262.897 633.576L261.677 666.193L261.677 708.186C261.677 724.201 267.878 729.182 277.497 729.182C285.114 729.182 292.292 725.422 298.102 719.611L298.884 645.588L285.505 643L285.505 638.605L328.913 631.623L331.501 633.576L330.719 666.193ZM548.312 637.385C537.277 637.385 528.292 649.787 527.511 680.793L554.708 680.988C564.083 680.988 566.476 676.398 566.476 663.996C566.476 646.613 558.907 637.385 548.312 637.385ZM418.096 644.221C412.09 644.221 406.914 645.197 400.323 651.203L400.323 727.18C405.303 731.184 410.284 732.209 416.924 732.209C432.5 732.209 443.487 721.418 443.487 688.02C443.487 655.402 433.916 644.221 418.096 644.221Z" fill="#FF000000"/>
	</g>
	<defs>
		<filter id="filter_5_1_dd" x="4.999996" y="4.999993" width="790.000000" height="790.000000" filterUnits="userSpaceOnUse" color-interpolation-filters="sRGB">
			<feFlood flood-opacity="0" result="BackgroundImageFix"/>
			<feBlend mode="normal" in="SourceGraphic" in2="BackgroundImageFix" result="shape"/>
			<feGaussianBlur stdDeviation="3.33333" result="effect_layerBlur_1"/>
		</filter>
		<filter id="filter_2_5_dd" x="90.000000" y="-266.999939" width="634.398926" height="1220.000000" filterUnits="userSpaceOnUse" color-interpolation-filters="sRGB">
			<feFlood flood-opacity="0" result="BackgroundImageFix"/>
			<feColorMatrix in="SourceAlpha" type="matrix" values="0 0 0 0 0 0 0 0 0 0 0 0 0 0 0 0 0 0 127 0"/>
			<feOffset dx="10" dy="10"/>
			<feGaussianBlur stdDeviation="3.33333"/>
			<feColorMatrix type="matrix" values="0 0 0 0 0 0 0 0 0 0 0 0 0 0 0 0 0 0 0.5 0"/>
			<feBlend mode="normal" in2="BackgroundImageFix" result="effect_dropShadow_1"/>
			<feBlend mode="normal" in="SourceGraphic" in2="effect_dropShadow_1" result="shape"/>
		</filter>
		<clipPath id="clip2_1">
			<rect id="ICON" width="800.000000" height="800.000000" fill="#00000000"/>
		</clipPath>
		<linearGradient id="paint_linear_2_2_0" x1="400.000000" y1="25.000000" x2="400.000000" y2="775.000000" gradientUnits="userSpaceOnUse">
			<stop stop-color="#0093E9"/>
			<stop offset="1.000000" stop-color="#80D0C7"/>
		</linearGradient>
	</defs>
</svg>
